# xmcd
#
# Track frame offsets:
#	150
#	10995
#	20832
#	29326
#	39279
#	50815
#	63244
#	74186
#	85483
#	96094
#	114121
#	126089
#
# Disc length: 1838 seconds
#
# Revision: 1
# Processed by: cddbd v1.5.2PL0 Copyright (c) Steve Scherf et al.
# Submitted via: audiograbber 1.82.02
#
DISCID=a4072c0c
DTITLE=Reg Lindsay - Roadside Mailbox
DYEAR=1989
DGENRE=Country
TTITLE0=Truck Drivin' Man
TTITLE1=One Heart
TTITLE2=Boy From The Country
TTITLE3=Wonder Drug
TTITLE4=If Teardrops Were Pennies
TTITLE5=Bowen River Rodeo
TTITLE6=Little Sweetheart, Come And Kiss Me
TTITLE7=No Work On The Farm
TTITLE8=If I Could Go Back
TTITLE9=Highway Hobo
TTITLE10=They Gotta Quit Kickin' My Dog Around
TTITLE11=Highway Man
EXTD=
EXTT0=
EXTT1=
EXTT2=
EXTT3=
EXTT4=
EXTT5=
EXTT6=
EXTT7=
EXTT8=
EXTT9=
EXTT10=
EXTT11=
PLAYORDER=
